<?xml version="1.0" encoding="UTF-8"?>
<svg width="216px" height="90px" viewBox="0 0 216 90" version="1.1" xmlns="http://www.w3.org/2000/svg" xmlns:xlink="http://www.w3.org/1999/xlink">
    <!-- Generator: Sketch 61.2 (89653) - https://sketch.com -->
    <title>Group 3</title>
    <desc>Created with Sketch.</desc>
    <g id="Page-1" stroke="none" stroke-width="1" fill="none" fill-rule="evenodd">
        <g id="A4-Copy-31" transform="translate(-110.000000, -115.000000)" fill="#000000">
            <g id="Group-3" transform="translate(110.000000, 115.000000)">
                <path d="M198.913318,51.4124276 C208.964508,51.4124276 212.002819,53.9996179 213.218357,55.1201854 C214.433894,56.2407529 216,64.1753369 216,73.4955637 C216,90.2449001 209.771056,90.0140439 196.50014,89.9981099 L195.678829,89.997549 C190.766677,89.997549 190.402231,85.7671644 195.486281,85.2865337 C201.733142,84.6959745 202.801619,84.4845156 202.829001,76.1468173 L202.829551,75.8043296 C202.829551,75.2769183 202.681005,75.3022121 199.070269,75.3080603 L198.226915,75.3088076 C190.019984,75.3088076 185.456438,73.8693966 185.113237,64.4604524 C184.770035,55.0515082 188.862128,51.4124276 198.913318,51.4124276 Z M88.581797,47.2780449 C91.3728192,47.2780449 96.2212688,47.9048571 98.4427173,49.5515321 C98.7384101,49.7707179 98.0757814,50.8850422 96.9198383,52.0383815 C95.7638953,53.1917208 95.0669134,53.5518422 88.581797,53.5518422 C84.190306,53.5518422 83.0643836,56.9318577 83.404724,62.1701617 C83.7701295,67.7942544 85.7001294,69.143705 89.350523,69.143705 C90.7025228,69.143705 91.8465852,69.108692 92.7827094,69.0386537 C93.9896067,68.9483729 94.9093552,67.9203646 94.8653302,66.7108964 L94.8653302,66.7108964 L94.8565538,66.4675519 C94.794706,64.74051 94.7836799,64.2634138 94.5300793,64.0648333 C94.2649513,63.8572264 87.7669821,63.7207198 86.0232209,63.3380902 C85.3656572,63.1938024 85.3656572,59.3820912 86.0232209,59.1382361 C86.6807846,58.894381 89.9507075,58.9198134 95.526341,58.983562 C101.101974,59.0473106 103.964744,59.1904617 105.159507,59.8291677 C106.023492,60.2910434 106.102036,64.0897498 106.109176,66.4044155 L106.10989,67.0494731 C106.10989,70.4880056 105.479239,72.3972159 104.844131,73.4192493 C104.209022,74.4412827 96.4775769,75.5296604 88.9456076,75.5296604 C81.4136383,75.5296604 71.306384,74.250323 71.0896504,62.4497608 C70.8729167,50.6491985 75.5003495,47.2780449 88.581797,47.2780449 Z M126.311855,52.1014914 C134.749166,52.1014914 142.510989,54.8969635 142.510989,63.471044 C142.510989,72.0451245 136.608333,74.8405966 126.495197,74.8405966 C116.38206,74.8405966 109.543956,72.2902056 109.543956,63.471044 C109.543956,54.6518824 117.874543,52.1014914 126.311855,52.1014914 Z M158.471091,53.5814661 C159.252481,54.0801247 161.205699,56.785982 166.764986,63.4990612 C167.517527,64.4077867 168.390271,63.789092 168.395719,62.8975765 C168.404677,61.4316521 168.44629,59.3350795 168.517275,57.9316585 C168.625975,55.7825669 168.80929,54.169396 169.081564,53.5432774 L169.158957,53.3746635 L169.178011,53.3397031 C169.345729,53.0554079 169.824537,52.8500456 173.462413,52.8029834 L174.041157,52.797051 C178.92273,52.7591549 180.543981,53.035203 180.698048,55.1883585 L180.744013,55.9215794 C180.797434,56.6945732 180.863122,57.345851 180.873363,59.3839828 L180.95301,69.0041328 C180.959912,69.686527 180.969224,70.3110855 180.970579,70.8778514 L180.972527,72.4934064 C180.972527,74.0658521 180.761985,74.148439 179.134318,74.1515328 L171.115738,74.150793 C166.764986,74.1481914 164.819809,70.4786603 160.677191,65.4824298 C159.993215,64.6575154 159.156089,65.4669986 159.16001,65.9098965 C159.164309,66.395612 159.173103,67.1629924 159.186391,68.2120377 L159.192593,69.0041328 C159.199495,69.686527 159.208806,70.3110855 159.210161,70.8778514 L159.21211,72.4934064 C159.21211,74.0658521 159.001568,74.148439 157.3739,74.1515328 L148.67536,74.1509044 L148.46845,74.1481914 C147.164771,74.1205034 146.883778,73.8679775 146.782089,71.6158058 L146.742686,70.5329452 L146.694062,68.6581149 L146.670151,67.5800023 C146.546989,61.3293191 146.709892,54.9489137 147.321146,53.5432774 L147.398539,53.3746635 L147.417593,53.3397031 C147.585311,53.0554079 148.064119,52.8500456 151.701995,52.8029834 L152.280739,52.797051 C155.980364,52.7683304 157.251221,52.8029834 158.471091,53.5814661 Z M126.107222,57.4234097 C123.957838,57.4234097 123.603426,60.5680902 123.603426,63.5072015 L123.603962,63.9280195 C123.612822,66.7373808 123.761702,69.5770693 126.107222,69.5770693 C128.570017,69.5770693 128.611077,66.7724599 128.611077,63.5072015 C128.611077,60.2419431 128.256606,57.4234097 126.107222,57.4234097 Z M200.546699,56.8692561 C198.556026,56.8692561 198.228709,59.113324 198.228709,63.2283767 C198.228709,67.3434295 198.78895,69.3420067 200.546699,69.3420067 C202.304449,69.3420067 202.864698,67.6746728 202.864698,63.2283767 C202.864698,58.7820807 202.537373,56.8692561 200.546699,56.8692561 Z M210.336711,6.89082286 C211.972595,6.89072531 213.306977,8.20122866 213.336409,9.83684797 C213.502496,19.0666801 213.58985,24.9303577 213.598472,27.4278807 L213.598502,31.1492545 C213.58179,42.700697 211.488231,43.4110189 194.859794,43.4110189 C189.30433,43.4110189 189.695011,38.7598623 194.490695,38.5303024 C201.166032,38.2107673 201.720574,38.3751902 201.648164,30.7133094 C201.643403,30.2095919 201.261885,30.065693 199.194161,30.0266767 L198.383547,30.0236333 C189.689183,29.9631082 184.434825,28.3553652 184.073108,18.8938008 C184.063666,18.6468203 184.063544,15.644362 184.072744,9.88642597 C184.07539,8.23140797 185.417818,6.89116667 187.072839,6.89122089 L193.437364,6.89142942 C195.035045,6.89133702 196.340984,8.14029461 196.432179,9.71510466 L196.437116,9.89152771 L196.437116,9.89152771 L196.43646,17.8087074 C196.43646,21.9264288 196.132048,23.9263022 198.651055,23.9263022 C201.170061,23.9263022 200.86565,22.257887 200.86565,17.8087074 L200.865086,9.89141744 C200.864948,8.29373656 202.113774,6.98766769 203.688575,6.89630919 L203.864873,6.89122912 L203.864873,6.89122912 L210.336711,6.89082286 Z M21.6246496,0.000367432987 C24.3494616,0.015599359 24.0266101,0.53590366 24.0266101,7.33503155 L24.0261186,8.9520943 C24.0190576,16.3156886 23.9106068,21.1413358 22.2458181,24.2620008 C19.9465917,28.5719265 14.6787866,29.6297431 2.60961981,29.6297431 C-0.644290907,29.6297431 -1.08837798,25.9196851 2.60961981,25.3560107 C8.58268562,24.4455548 12.013306,23.7326645 12.4876321,17.2565429 C12.6632822,14.8583375 12.8215671,11.4577309 12.8215671,7.33503155 C12.8215671,0.345797821 12.2600039,0 15.4879028,0 Z M45.6140523,6.20157413 C54.0513635,6.20157413 61.8131868,8.9970462 61.8131868,17.5711267 C61.8131868,26.1452072 55.9105311,28.9406793 45.7973946,28.9406793 C35.684258,28.9406793 28.8461538,26.3902883 28.8461538,17.5711267 C28.8461538,8.75196511 37.1767412,6.20157413 45.6140523,6.20157413 Z M78.6572101,9.28546816 L78.6773496,9.61511664 C78.7326018,10.6336936 78.8205029,11.123355 78.829309,13.6297333 C78.8350743,15.2706561 79.2102593,15.3626579 80.2997629,15.3672192 L84.2275104,15.3673486 L84.2275104,15.3673486 C85.4566442,15.3673449 85.8684805,14.9418047 85.9299576,13.9367787 C85.9914347,12.9317526 86.1946173,8.55737843 86.5831177,7.64143254 L86.6593698,7.47148876 L86.6859716,7.42318507 C86.8575251,7.14577076 87.3662588,6.94604941 90.8686032,6.89971905 L91.4346759,6.89378566 C96.1574692,6.85629561 97.7602722,7.12601015 97.9403914,9.21590898 L97.9458162,9.28546816 C98.0111289,10.2188171 98.0755634,12.4688297 98.1249307,15.4070791 C98.1743521,18.3485532 98.2086734,21.9797756 98.2136588,25.670248 L98.2142857,26.5932291 C98.2142857,28.1659214 98.0083534,28.2485212 96.4163236,28.2516155 L87.9082349,28.250987 C86.4591239,28.241095 86.1609374,28.0825509 86.056417,25.7154909 L86.0178765,24.6324605 C86.0016953,24.1022283 85.9880388,23.526128 85.9636232,22.4676673 C85.9351081,21.2314832 85.3527521,21.1317214 84.624739,21.1317214 L80.2843393,21.1314874 L80.2843393,21.1314874 C79.5604734,21.1317214 78.8953491,21.2554572 78.9005237,22.3111892 C78.9054158,23.309289 78.9219512,24.1979955 78.9237736,24.9774209 L78.9256796,26.5932291 C78.9256796,28.1659214 78.7197473,28.2485212 77.1277175,28.2516155 L68.6196288,28.250987 C67.1705177,28.241095 66.8723313,28.0825509 66.7678108,25.7154909 L66.7292703,24.6324605 C66.7146303,24.1527266 66.7020568,23.6354454 66.6817117,22.7573363 L66.6583241,21.6790547 L66.6447346,20.8972904 C66.5518977,14.9042458 66.7221059,8.98740845 67.2950651,7.64012913 L67.3707637,7.47148876 C67.520553,7.16909692 67.8775187,6.94869686 71.5799971,6.89971905 L72.1460698,6.89378566 C76.9207619,6.85588364 78.5065158,7.13197504 78.6572101,9.28546816 Z M116.234827,7.68154881 C117.016217,8.18020741 118.969435,10.8860647 124.528722,17.5991439 C125.281263,18.5078693 126.154007,17.8891747 126.159455,16.9976592 C126.168413,15.5317348 126.210027,13.4351622 126.281011,12.0317412 C126.389711,9.88264963 126.573026,8.2694787 126.8453,7.64336012 L126.922693,7.47474618 L126.941747,7.43978583 C127.109465,7.15549058 127.588273,6.95012831 131.226149,6.9030661 L131.804893,6.89713364 C136.686466,6.85923756 138.307717,7.13528568 138.461785,9.28844123 L138.50775,10.0216621 C138.56117,10.7946559 138.626858,11.4459337 138.6371,13.4840655 L138.716747,23.1042155 C138.723649,23.7866097 138.73296,24.4111682 138.734315,24.9779341 L138.736264,26.5934891 C138.736264,28.1659348 138.525722,28.2485216 136.898055,28.2516155 L128.879474,28.2508757 C124.528722,28.2482741 122.583545,24.5787429 118.440928,19.5825125 C117.756951,18.7575981 116.919825,19.5670813 116.923746,20.0099792 C116.928046,20.4956947 116.936839,21.2630751 116.950127,22.3121204 L116.956329,23.1042155 C116.963231,23.7866097 116.972542,24.4111682 116.973897,24.9779341 L116.975846,26.5934891 C116.975846,28.1659348 116.765304,28.2485216 115.137637,28.2516155 L106.439096,28.2509871 L106.232186,28.2482741 C104.928507,28.2205861 104.647515,27.9680602 104.545825,25.7158885 L104.506422,24.6330278 L104.457799,22.7581975 L104.433888,21.680085 L104.419994,20.8984432 C104.325079,14.9063381 104.499097,8.99042824 105.084882,7.64336012 L105.162275,7.47474618 L105.181329,7.43978583 C105.349048,7.15549058 105.827855,6.95012831 109.465731,6.9030661 L110.044476,6.89713364 C113.7441,6.86841313 115.014957,6.9030661 116.234827,7.68154881 Z M156.069992,7.68154881 C156.851382,8.18020741 158.8046,10.8860647 164.363887,17.5991439 C165.116428,18.5078693 165.989172,17.8891747 165.99462,16.9976592 C166.003578,15.5317348 166.045192,13.4351622 166.116176,12.0317412 C166.224876,9.88264963 166.408191,8.2694787 166.680465,7.64336012 L166.757858,7.47474618 L166.776912,7.43978583 C166.94463,7.15549058 167.423438,6.95012831 171.061314,6.9030661 L171.640058,6.89713364 C176.521631,6.85923756 178.142882,7.13528568 178.296949,9.28844123 L178.342914,10.0216621 C178.396335,10.7946559 178.462023,11.4459337 178.472264,13.4840655 L178.551911,23.1042155 C178.558814,23.7866097 178.568125,24.4111682 178.56948,24.9779341 L178.571429,26.5934891 C178.571429,28.1659348 178.360886,28.2485216 176.733219,28.2516155 L168.714639,28.2508757 C164.363887,28.2482741 162.41871,24.5787429 158.276092,19.5825125 C157.592116,18.7575981 156.75499,19.5670813 156.758911,20.0099792 C156.76321,20.4956947 156.772004,21.2630751 156.785292,22.3121204 L156.791494,23.1042155 C156.798396,23.7866097 156.807707,24.4111682 156.809062,24.9779341 L156.811011,26.5934891 C156.811011,28.1659348 156.600469,28.2485216 154.972802,28.2516155 L146.274261,28.2509871 L146.067351,28.2482741 C144.763672,28.2205861 144.482679,27.9680602 144.38099,25.7158885 L144.341587,24.6330278 L144.292964,22.7581975 L144.269052,21.680085 C144.14589,15.4294018 144.308793,9.04899642 144.920047,7.64336012 L144.99744,7.47474618 L145.016494,7.43978583 C145.184212,7.15549058 145.66302,6.95012831 149.300896,6.9030661 L149.87964,6.89713364 C153.579265,6.86841313 154.850122,6.9030661 156.069992,7.68154881 Z M45.3781223,12.0073031 C43.2556056,12.0073031 42.9056238,15.1039325 42.9056238,17.9981337 C42.9056238,20.892335 42.9461118,23.9752532 45.3781223,23.9752532 C47.8101327,23.9752532 47.8506787,21.2134986 47.8506787,17.9981337 C47.8506787,14.7827689 47.5006389,12.0073031 45.3781223,12.0073031 Z" id="Combined-Shape"></path>
                <path d="M50.8214994,37.892582 C51.6131449,38.1319234 50.5409635,38.5538563 50.8214994,38.6909173 C56.6820718,41.5542079 58.0008661,48.1038867 58.0008661,50.4784626 C58.0008661,52.3628441 57.7013764,54.4216716 57.102397,56.6549448 C57.1272928,57.0019499 57.1492106,57.3568323 57.1678187,57.7202931 C58.1469959,57.8632087 58.8867592,58.0851849 59.4681589,58.4198691 C60.5602572,59.0485383 61.0551194,60.068637 60.9831328,61.4422221 C60.9111463,62.8158073 60.3123657,63.7785905 59.1605361,64.2896605 C58.5766867,64.5487161 57.9600619,64.6910878 57.1169538,64.7385258 C56.3518176,74.4937664 52.2706608,79 44.4544592,79 C36.6427772,79 32.5618218,74.4989761 31.794535,64.7549658 C30.9654758,64.6906483 30.358595,64.5362442 29.7857435,64.2700073 C28.6430088,63.738913 28.0611222,62.7658261 28.013119,61.3911939 C27.9651158,60.0165616 28.4777058,59.0052549 29.5806096,58.3957411 C30.1368989,58.0883109 30.8335537,57.8845169 31.7390023,57.7569335 C31.7478949,57.5855366 31.7572518,57.4166155 31.7673456,57.2495612 L31.7600038,57.25 C31.1920362,54.7862424 30.9080523,52.5290632 30.9080523,50.4784626 C30.9080523,47.4025616 32.9819637,37.8975043 44.3572076,37.0626521 C47.8793579,36.8041544 49.1844119,37.3976347 50.8214994,37.892582 Z M55.3373226,62.7838928 L55.3116327,62.8208395 C54.1518968,64.4424949 52.2492674,65.5 50.0987954,65.5 C48.0973296,65.5 46.3105503,64.5839667 45.1375678,63.1496432 L43.0912473,65.3663397 L45.4829192,66.7188129 C45.9107166,66.9607257 46.0778884,67.5059687 45.8716422,67.9572305 L45.8481104,68.0052022 C45.6150477,68.4492443 45.0897516,68.622764 44.6549986,68.4086861 L44.6087818,68.3842607 L41.1682133,66.4386732 C40.7258805,66.1885409 40.5763353,65.6305242 40.7833078,65.1906677 C40.1620086,65.3915541 39.4987738,65.5 38.810123,65.5 C36.643505,65.5 34.7284653,64.4265555 33.5712892,62.7842176 C33.5730298,62.8288104 33.5745244,62.873612 33.5760796,62.9182978 L33.6570003,62.9144744 L33.7219682,64.7749121 L33.6810126,64.7757466 C34.3789628,73.5014272 37.8050262,77.173913 44.4544592,77.173913 C51.1173025,77.173913 54.5437616,73.4865992 55.2320953,64.722892 L55.2161419,64.7211507 L55.313569,62.8621302 L55.3346936,62.8640935 C55.3355915,62.8374011 55.3364678,62.8106675 55.3373226,62.7838928 Z M49.50022,68.9216777 C49.7730597,69.2671296 49.7154556,69.7645047 49.3715576,70.032596 C47.6471581,71.37688 44.6472619,71.8882237 42.5516188,71.1950806 C42.1336835,71.0568467 41.9037544,70.6084827 42.0380578,70.1936317 C42.1723612,69.7787806 42.6200391,69.5545381 43.0379744,69.6927721 C44.6282138,70.2187507 47.0749895,69.8016884 48.3835176,68.7816038 C48.7274156,68.5135125 49.2273803,68.5762257 49.50022,68.9216777 Z M38.810123,54.6489362 C36.3295634,54.6489362 34.3186725,56.6529382 34.3186725,59.125 C34.3186725,61.5970618 36.3295634,63.6010638 38.810123,63.6010638 C41.2906826,63.6010638 43.3015735,61.5970618 43.3015735,59.125 C43.3015735,56.6529382 41.2906826,54.6489362 38.810123,54.6489362 Z M50.0987954,54.6489362 C47.6182358,54.6489362 45.6073449,56.6529382 45.6073449,59.125 C45.6073449,61.5970618 47.6182358,63.6010638 50.0987954,63.6010638 C52.579355,63.6010638 54.5902459,61.5970618 54.5902459,59.125 C54.5902459,56.6529382 52.579355,54.6489362 50.0987954,54.6489362 Z M31.6746547,59.6401177 L31.5164752,59.6687856 C30.2285273,59.9183333 29.8341391,60.4003565 29.8512004,61.2806709 L29.8524613,61.3269626 C29.8863988,62.2988033 30.2131557,62.7646833 31.6893789,62.8938571 C31.6705168,62.3223639 31.6606305,61.734468 31.6606305,61.1304348 C31.6606305,60.6198429 31.6652526,60.1232119 31.6746547,59.6401177 Z M57.2351663,59.6062654 L57.2342611,59.6399871 C57.240989,59.9856449 57.2452698,60.3382329 57.2471613,60.6979065 L57.2471613,60.6979065 L57.2482879,61.1304348 C57.2482879,61.7298733 57.2385515,62.3134189 57.2190107,62.8811925 C58.750146,62.7870623 59.0935928,62.3304641 59.1451916,61.3458997 L59.1451916,61.3458997 L59.1472603,61.2996371 C59.1818934,60.3597577 58.7391928,59.8660756 57.2351663,59.6062654 Z M38.810123,55.75 C39.715796,55.75 39.9389902,56.4821928 39.9389902,59.125 L39.9382293,59.3829556 C39.9233523,61.8158065 39.6856069,62.5 38.810123,62.5 C37.90445,62.5 37.6812558,61.7678072 37.6812558,59.125 L37.6820168,58.8670444 C37.6968937,56.4341935 37.9346391,55.75 38.810123,55.75 Z M50.0987954,55.75 C51.0044684,55.75 51.2276626,56.4821928 51.2276626,59.125 C51.2276626,61.7678072 51.0044684,62.5 50.0987954,62.5 C49.1931224,62.5 48.9699282,61.7678072 48.9699282,59.125 C48.9699282,56.4821928 49.1931224,55.75 50.0987954,55.75 Z M52.4555268,47.6685973 L52.6445011,47.5954329 C50.2477632,48.6050206 47.110616,48.6950502 44.3376575,48.6950502 C41.7118024,48.6950502 38.6126142,48.5526069 36.394548,47.7394203 C36.2547972,47.9072436 36.1212142,48.0834741 35.9933013,48.2679922 C35.9510775,48.8819175 35.8750213,49.4862365 35.7685016,50.0805767 C36.3075025,49.9969708 36.8508905,49.9321036 37.3974886,49.8842825 C38.6565902,49.7741254 39.9159279,49.755888 41.1750231,49.8295903 C41.834666,49.868203 42.3366979,50.4283423 42.2963427,51.0806963 C42.2559875,51.7330504 41.6885269,52.2305859 41.0288839,52.1919732 C39.8872562,52.125147 38.7456964,52.1416787 37.6037261,52.2415882 C36.7661263,52.3148687 35.9372705,52.4322201 35.1169695,52.593662 C34.8818831,53.2914168 34.602071,53.9680999 34.2822252,54.6232299 C35.4398911,53.4655753 37.041154,52.75 38.810123,52.75 C41.2539154,52.75 43.3776437,54.115663 44.4547983,56.1229682 C45.5312747,54.115663 47.655003,52.75 50.0987954,52.75 C50.3247656,52.75 50.5479993,52.7616766 50.7679219,52.7844575 C50.001638,52.6188664 49.2391035,52.5477668 48.4777401,52.5695056 C47.8177749,52.5883491 47.2641098,52.0736644 47.2410945,51.419925 C47.2180792,50.7661856 47.7344291,50.2209493 48.3943943,50.2021058 C49.631674,50.1667785 50.868053,50.3264841 52.0993434,50.6795509 C52.4283798,50.7739006 52.7622062,50.8835324 53.1008827,51.00839 C52.8628658,50.0096395 52.7128717,48.9763214 52.6582155,47.9189452 C52.5924174,47.8331761 52.5246739,47.7499185 52.4555268,47.6685973 Z" id="Combined-Shape" fill-rule="nonzero"></path>
            </g>
        </g>
    </g>
</svg>